<?xml version="1.0" encoding="UTF-8"?>
<svg version="1.1" viewBox="0 0 2048 2048" width="1280" height="1280" xmlns="http://www.w3.org/2000/svg">
<path transform="translate(1078,243)" d="m0 0h20l26 2 20 4 21 6 28 11 25 12 21 12 6 2 2-4 3-3h2l1-3h2l1-3 8-5 4-1h18l14 3 16 6 23 13 16 11 13 10 13 11 16 15 12 12 7 8 5 4 7 1 8-3 13-8h14l15 5 34 1 33 4 19 5 15 6 25 12 41 21 21 12 15 10 14 11 12 11 19 19 11 14 10 13 14 22 11 22 11 29 8 27 5 22 4 25 3 33v32l-1 11v12l6 18 6 17 4 18 1 11v46l-3 25-4 23 1 5 12 9 10 9 12 12 5 9 3 12v10l-3 12-7 10-9 8-8 5 3 11 5 18 1 8v44l-2 19-5 19-8 20-8 14-13 18-7 10 1 9 13 32 7 24 4 19 2 18 1 24-2 23-4 15-10 21-10 16-9 12-9 10-12 12-15 11-16 10 6 7 11 15 9 19 4 13 3 19v10l-2 14-4 10-9 10-8 7-11 4-5 1h-39l-26-3-40-7-10-1-16 8-7 2h-11l-9-3-10 6-15 11-24 16-23 15-25 15-25 13-24 10-30 10-10 2-12 1h-12l-9-2-11-7-6 1-35 17-34 13-24 8-26 6-24 4-25 4-9 4-6 4-13 11-13 10-23 15-26 15-19 10-28 13-28 11-19 6-24 5h-23l-9-2-16-8-7-6-8-11-9-17-7-19-6-23-5-27-4-4-14-5-6-1-20 3-13 1h-30l-13-2-13-5-11-7-8-6-29-7-27-10-10-4-6 2-18 11-18 10-19 9-37 15-34 12-30 9-40 10-22 4-9 1h-23l-14-3-10-5-8-8-7-12-6-18-3-16-3-28v-52l4-39 5-27 4-15 7-20 2-5-1-5-10-13-12-20-7-4-12-6-15-14-7-11-4-9-3-14-1-52-16-9-17-10-11-9-10-9-7-7-8-11-5-13-1-4v-26l4-16 7-14 7-9-1-4-16-15-12-12-9-14-4-11v-23l5-12 8-10 10-9 12-8-1-12-1-8v-14l3-15 5-10 8-10 10-10 14-10-4-5-14-11-9-9-9-11-10-11-11-16-8-14-9-19-9-22-6-22-4-24-2-20v-62l3-31 5-36 6-28 10-34 9-25 9-20 10-19 10-17 6-7 8-5 9-1 6 3 4 8 1 10v68l3-1 7-18 8-16 10-18 12-19 12-14 9-9 11-9 8-7 18-13 23-14 15-8 14-5 22-5 38-4 20-1h21l21 2 10 2 5-1 3-1 2-4 9-11 14-15 16-15 19-14 10-7 20-12 19-10 32-13 30-10 25-6 35-5v-10l2-9 6-8 9-9 10-5 15-4 16-2 17-1h63l32 2 18 2h8l10-12 10-7 15-9 15-7 10-2z" fill="#E1F5FD"/>
<path transform="translate(1078,243)" d="m0 0h20l26 2 20 4 21 6 28 11 25 12 21 12 6 2 2-4 3-3h2l1-3h2l1-3 8-5 4-1h18l14 3 16 6 23 13 16 11 13 10 13 11 16 15 12 12 7 8 5 4 7 1 8-3 13-8h14l15 5 34 1 33 4 19 5 15 6 25 12 41 21 21 12 15 10 14 11 12 11 19 19 11 14 10 13 14 22 11 22 11 29 8 27 5 22 4 25 3 33v32l-1 11v12l6 18 6 17 4 18 1 11v46l-3 25-4 23 1 5 12 9 10 9 12 12 5 9 3 12v10l-3 12-7 10-9 8-8 5 3 11 5 18 1 8v44l-2 19-5 19-8 20-8 14-13 18-7 10 1 9 13 32 7 24 4 19 2 18 1 24-2 23-4 15-10 21-10 16-9 12-9 10-12 12-15 11-16 10 6 7 11 15 9 19 4 13 3 19v10l-2 14-4 10-9 10-8 7-11 4-5 1h-39l-26-3-40-7-10-1-16 8-7 2h-11l-9-3-10 6-15 11-24 16-23 15-25 15-25 13-24 10-30 10-10 2-12 1h-12l-9-2-11-7-6 1-35 17-34 13-24 8-26 6-24 4-25 4-9 4-6 4-13 11-13 10-23 15-26 15-19 10-28 13-28 11-19 6-24 5h-23l-9-2-16-8-7-6-8-11-9-17-7-19-6-23-5-27-4-4-14-5-6-1-20 3-13 1h-30l-13-2-13-5-11-7-8-6-29-7-27-10-10-4-6 2-18 11-18 10-19 9-37 15-34 12-30 9-40 10-22 4-9 1h-23l-14-3-10-5-8-8-7-12-6-18-3-16-3-28v-52l4-39 5-27 4-15 7-20 2-5-1-5-10-13-12-20-7-4-12-6-15-14-7-11-4-9-3-14-1-52-16-9-17-10-11-9-10-9-7-7-8-11-5-13-1-4v-26l4-16 7-14 7-9-1-4-16-15-12-12-9-14-4-11v-23l5-12 8-10 10-9 12-8-1-12-1-8v-14l3-15 5-10 8-10 10-10 14-10-4-5-14-11-9-9-9-11-10-11-11-16-8-14-9-19-9-22-6-22-4-24-2-20v-62l3-31 5-36 6-28 10-34 9-25 9-20 10-19 10-17 6-7 8-5 9-1 6 3 4 8 1 10v68l3-1 7-18 8-16 10-18 12-19 12-14 9-9 11-9 8-7 18-13 23-14 15-8 14-5 22-5 38-4 20-1h21l21 2 10 2 5-1 3-1 2-4 9-11 14-15 16-15 19-14 10-7 20-12 19-10 32-13 30-10 25-6 35-5v-10l2-9 6-8 9-9 10-5 15-4 16-2 17-1h63l32 2 18 2h8l10-12 10-7 15-9 15-7 10-2zm4 28-16 2-18 6-18 8v4l13 10 3 4-2 5-4 3h-11l-34-5-22-2-29-1h-31l-32 1-26 3-14 4-1 3 20 9 16 7 19 10 10 8 1 2-5 1-3 4-13-1-17-2h-49l-20 2-22 4-26 7-29 10-28 12-25 13-23 14-12 8-8 10-11 10-24 18v2l26 10 28 13 16 8 11 7 11 9 13 12 10 8 24 24 11 15 13 21 11 23 7 17 9 23 7 24 5 26 3 27v41l-2 22-5 26-6 21-9 25-11 27-8 14-9 13-11 16-11 14-15 16-24 22-11 9-15 11-14 8-26 12-14 7-22 8-24 6-26 4-19 2h-50l-24-3-23-6-21-9-27-8-18-8-15-8-10-8-7-8-4 2-12 5-12 7-11 10-5 10-2 10 1 17 5 12 8 10 1 4-6 7-10 5-16 7-8 5-4 5-2 6v13l4 10 6 9 20 20 9 11 4 7-1 7-6 10-6 7-5 12-1 7v23l4 12 9 10 11 10 19 14 28 21 6 6-2 12v33l2 14 5 12 7 8 16 6 9 4 7 8 4 13 8 13 9 11 14 14 11 9 12 10 17 12 14 10 5 5-1 4-3 3-8-1-16-9-16-11-12-9-13-11-4-3-3 1-2 13-8 37-5 32v8l10 7 13 8 24 14 27 14 31 15 33 14 29 9 20 6 9-1 22-9 20-9 31-15-3-3-30-15-16-10-11-9-7-8v-5l8 1 13 5 26 12 36 18 23 10 20 7 16 4 18 1 4 5 4 3-2 4v3l9 6 11 4 14 2h20l20-2v-2l-5-3h14l22 3 7 3 34 5 28 2h58l24-2 28-4 27-6 27-8 18-6 5 4h2l1 5-9 8-18 8-16 6v1l17 1h39l23-2 23-4 29-7 21-5 44-15 26-11 16-8 17-9 7-4 4 1 7 7 5 9 5 4 3 1h16l16-4 16-8 15-9 26-14 23-13 24-15 23-15 19-13 18-13 10-8 5-3 5 1 6 5 2 3 1 8 5-2 11-7 10-9 12-16 6-12 2-7 2-21-11 2-26 6-29 5-33 3h-63l-30-3-34-6-31-7-36-12-25-11-25-13-17-11-14-10-13-10-13-12-10-9-14-15-11-14-11-15-12-21-6-14-10-27-9-27-6-27-3-21-1-13v-41l3-24 5-24 10-30 11-24 10-22v-4l-26-3-8-3-7-6-2-4v-7l4-7 4-1 2 4v9l4 5 10 1 24-3 29-6 27-8 30-12 10-3v3l4-2 4-5 3-1 7 8 4 4h9l10-3 9-10 7-8 9 5 10 6 19 7 10 2h11l21-3 15-5 9-6 7-8v-7l-1-4 5-4 3-4 4 2 10 6 14 6 10 3h3l-1-5-6-11-5-7 8-4h10l43 9 13 2 12 1h15l10-3 8-7 2-4v-10l-4-8-7-9v-2l7 1 4 2 7 14 3 10v9l-3 6-5 6-7 5-6 3 25 25 8 7 29 29 7 8 12 13 7 8 9 10 9 11 12 15 15 20 20 30 13 21 9 16 3-3 12-19 11-23 5-16 3-17 1-11v-38l-2-23-2-20-2-2-9-3-2-2 1-4 6-4 21-6 6-4 1-2v-15l-3-8-5-6-16-10-15-8-6-5 2-4 5-4v-9l2-5v-9l3-21 1-13v-38l-2-21-4-15-14-34-10-18-14-21-12-17-21-31-8-8-4-8-14-49-6-16-6-1-9 1h-13l-7-7-4-9-8-15-10-14-7-8-15-11-21-11-22-10-11-6-16-3-4-5 1-6-8-17-9-15-9-12-9-10-4-5-8-7-14-10-11-5-5-1-3 28-4 12-3 4-6-1-4-2-2-4-14-18-9-11-9-10-10-13-7-6-10-7-14-12-16-12-14-9-16-9-15-7-13-4-6-1h-10l-3 7v13l7 7 5 4 4 5 1 6-1 3-7-3-22-14-26-15-32-16-27-11-24-8-22-5-15-2-14-1z" fill="#1D294E"/>
<path transform="translate(796,772)" d="m0 0h1v16l-1 22v17l-5 25-4 13-6 16-11 23-12 19-8 11-11 14-11 13-7 8-9 10-11 12-9 10-13 13-11 9-14 12-16 12-17 11-18 10-16 8-18 8-25 9-25 7-38 9-1 1 1 25 3 11 5 8 5 5 9 6 11 5 8 3 7 2 1 24 2 14 3 10 7 11 10 10 14 8 16 6 15 4 23 4 8 1 1 4-2 17v19l5 13 8 11 10 7 12 5 15 3 10 1h41l24-4 22-6 7-1 8 16 11 12 10 8 14 8 14 5 18 4 26 3 25 1 16-1 17-3 8 1 19 7 6 4 11 13 10 10 15 11 14 8 9 3 8-16 11-23 15-30 13-29v-5l-13-12-11-9-16-13-19-14-15-10-9-7-2-4h8l12 4 16 8 16 9 12 8 16 12 10 8 14 12 16 15v2h2l7 8 7 7 9 11 8 9 12 17 7 11 2 4 4 1 7-5h2l2-4 4-5 4-8 1-4-7-8-8-7-9-8-13-17-10-21-7-22-4-17-4-27-3-28v-48l3-31 5-30 7-31 8-26 9-24 7-15 9-17 4-4-22-3-3-2 19 2 11 1-1 7-14 29-10 25-7 23-5 27-2 17v41l2 21 5 28 7 25 10 28 10 25 11 20 12 17 11 13 7 8 11 12 15 14 11 9 15 11 15 10 21 12 27 13 24 9 26 8 37 8 32 5 22 2h63l33-3 29-5 30-7 7-1-2 21-4 12-7 11-11 14-9 8-12 7-3 1-1-8-5-6-4-3-6 1-13 10-18 13-16 11-23 15-24 15-21 12-24 13-21 12-12 7-15 5-6 1h-16l-6-3-4-5-5-8-6-6-5 1-18 10-16 8-20 9-27 10-31 10-29 7-27 6-22 3-14 1h-39l-17-1 4-3 17-6 16-8 6-6-1-5-8-4-36 12-30 7-24 4-17 2-16 1h-58l-28-2-34-5-7-3-22-3h-14l5 3v2l-20 2h-20l-14-2-13-5-8-6 3-4-2-4-6-6-18-1-23-6-27-11-33-16-22-11-23-10-9-3h-5l1 7 9 9 17 12 29 15 11 6-4 3-35 17-31 13-6 2-9-1-43-13-29-12-28-13-32-16-24-14-15-9-12-8-1-1v-8l6-37 8-36 1-9 3-1 11 9 12 10 24 16 14 8 8 1 4-4-1-4-9-8-16-11-16-12-13-11-12-11-9-9-10-14-6-12-3-10-7-7-22-8-8-7-5-11-2-8-1-9v-33l2-12-9-9-13-9-20-15-13-10-12-11-6-7-4-12v-23l2-10 6-12 7-8 4-8-1-7-10-14-5-6-8-7-10-10-6-10-3-8v-13l3-8 7-6 17-8 10-4 5-4 4-5-2-5-8-11-4-10-1-17 2-10 5-10 7-7 14-9 13-5 3-3 4 2 7 8 10 7 21 11 19 7 21 6 18 8 23 6 24 3h50l33-4 25-5 23-7 18-8 34-16 12-7 16-12 14-12 26-24 11-12 12-16 8-12 7-10 9-15 8-19 11-29 6-19 5-22 3-21z" fill="#A7E0FE"/>
<path transform="translate(1515,943)" d="m0 0 10 1 21 4 3 1 30 2 1 3 4 2 12 12 3 2v2l4 2 24 24 2 1v2l4 2 16 17 9 10 14 15 7 8 8 9v2h2l10 13 9 11 12 16 10 14 10 15 8 13 6 10 4 7 11 20 9 20 11 28 6 23 3 19 1 10v20l-2 15-3 11-5 12-11 21-12 16-9 11-7 7-17 13-17 10-16 8-21 9-36 12-23 6-32 6-28 4-34 3h-42l-28-2-24-3-28-6-31-9-26-10-26-12-18-10-20-13-17-13-14-12-18-18v-2h-2l-6-7v-2h-2l-14-19-11-17-11-23-11-30-7-22-6-26-4-29-1-13v-29l3-28 5-25 11-33 11-27 3-9 2-7 14-2 24-6 20-7 17-8 12-8h2v-2l5-2 10 11 8 2h17l11-7 7-7 3-5 4 1 12 5 11 4 25 6 5 1 16 1 6 3 10 11 12 16 7 10 16 24 4 7 11 17 6 11 10 17 4 7 7 13 3 4 2 5 9 17 3 7-3-9-3-8-13-30-10-21-13-23-9-15-13-20-14-21-10-13-7-8v-3l13-5 10-8 10-9 1-2h2l2-4 20 4h15l6-3 5-6z" fill="#FBA9AB"/>
<path transform="translate(501,475)" d="m0 0h35l17 3 21 5 36 12 19 8-2 7-5 10-5 11-1 5 3-3 12-26 3-1 16 11 4 4-9 10-10 13-10 15-12 25-2 7 4-4 13-25 9-14 7-10h2l2-5 8-9 4 1 14 11 15 13 13 12 9 9 7 8 14 17 13 17 8 13 9 19 8 22 5 19 3 16 4 32v26l-5-2-8-4-24-7-17-4-20-3-16-1-6-1-18-1v2l19 3 38 5 24 5 15 5 16 6 2 1v10l-3 29-1 2-8-1-12-5-16-5-27-7-3 1 28 9 16 5 21 8-1 11-4 15-6 16-9 20-5 1-18-11-9-5-8-5-16-8-24-11-7-2 19 10 28 14 8 5 24 13 4 3-1 5-10 16-9 13-12 16-12 14-10 11-8 7-15 12-28 22-14 10-9 5-7-10-14-25-4-6 3 10 8 16 6 11 4 6-8 5-6 3-5-1-18-22-13-20-6-10-7-21-5-22-2-21v18l2 18 5 20 5 13 14 23 18 22 4 4v2l-16 6-25 7-24 5-14 2h-37l-21-2-3-1-8-16-7-15-6-18-4-17-2-25 1-22 3-27-3 12-3 30v28l5 23 7 19 8 17 4 7v3l-13-2-27-6-25-9-19-10-25-15-25-16-17-12-10-8-12-11-4-4 2-9 10-28 10-23 7-15v-3l-4 10h-2l-2 6-8 16-7 16-6 17-2 8-4-1-7-9-8-11-2-3 1-8 12-32 9-20 8-16 9-16 15-24 11-13 12-12 1-2 4 2 15 16 12 12 9 7 11 8 16 9 17 8 14 4 21 3 11 1h21l17-2 19-5 12-5 15-8 10-8 12-11 10-13 9-16 7-15 6-23v-18l-4-17-4-10-7-10-8-7-15-7-17-4h-16l-12 5-12 9-9 10-10 16-3 11 1 13 4 12 6 8 6 4-1-5-5-11-1-4v-15l6-12 10-11 14-10 7-4h14l12 2 11 6 9 7 5 7 4 15v20l-3 14-5 16-6 12-12 16-12 12-13 10-16 7-18 5-20 2-28-1-23-4-15-5-16-8-11-7-14-11-14-14-12-17-10-17-6-15-7-29-5-23v-4h2l9 11 14 14 16 12 12 7 16 8 20 5h7l-20-7-10-4-16-8-11-7-9-7-12-11-14-15-5-8-1-4v-19l3-19 6-21 9-20 9-15 14-19 9-10 8-8 13-10 18-13 20-13 5-3 3 1-5 29 1 17 4 21 8 23 11 23 12 20 7 9-1-3-12-21-11-22-6-15-6-21-3-18v-19l4-26 10-4 11-3 29-4z" fill="#87625B"/>
<path transform="translate(1054,761)" d="m0 0h16l16 3 15 6 14 9 10 9 9 12 7 14 4 12 2 12v15l-3 16-5 13-6 11-8 10-7 7-13 9-12 6-14 4-5 1h-23l-9-2 9 17 5 15 2 13v26l-4 17-7 15-7 12-9 11-7 7-13 9-16 8-22 6h-25l-17-4-14-5-12-7-12-9-9-9-9-13-8-16-4-14-2-10v-25l3-17 8-18 8-12 11-13 13-10 10-6 14-6 16-4 9-1h15l20 3-6-15-4-16v-22l4-17 8-17 10-13 8-8 15-10 15-6z" fill="#FBD7D0"/>
<path transform="translate(1586,669)" d="m0 0 14 1 13 4 13 7 9 7 11 11 9 14 6 12 5 15 2 11 1 23 3-5 11-9 14-5h12l14 4 13 7 11 9 8 9 9 14 8 15 7 21 4 20 2 14v11l-3 20-5 15-8 15-11 12-10 6-8 3-6 1h-10l-13-4-11-6-10-8-11-12-8-12-9-19-6-18-3-14-1-7-1-30 1-5-14 11-13 6-9 2h-15l-15-4-16-8-13-11-10-12-8-14-5-11-4-15-1-6v-25l3-15 7-16 10-13 10-8 11-5 7-2z" fill="#FBD7D0"/>
<path transform="translate(1217,1007)" d="m0 0h4l-1 11-4 24-2 20v56l3 32 5 32 7 30 8 27 8 22 11 26 10 20 14 24 12 17 13 16 12 13 7 7 11 9 14 10 15 9 19 9 20 8 26 8 30 7 38 6 36 3h65l3 1v2l4 1-36 6-43 4h-42l-28-2-24-3-28-6-31-9-26-10-26-12-18-10-20-13-17-13-14-12-18-18v-2h-2l-6-7v-2h-2l-14-19-11-17-11-23-11-30-7-22-6-26-4-29-1-13v-29l3-28 5-25 11-33 11-27 3-9 2-7 14-2z" fill="#D3687F"/>
<path transform="translate(994,1274)" d="m0 0h8l12 4 16 8 16 9 12 8 16 12 10 8 14 12 16 15v2h2l7 8 7 7 9 11 8 9 12 17 7 11 8 16 5 15 2 14-1 19 1 2v6l-5 8-7 8-15 10-19 9-21 5-16 2h-43l-54-6-30-7-24-6-26-8-26-11-11-6-4-4 17 2 93 20 10 2h6l9-21 15-33 12-26 24-48 13-29v-5l-13-12-11-9-16-13-19-14-15-10-9-7z" fill="#88625C"/>
<path transform="translate(1054,761)" d="m0 0h16l16 3 15 6 14 9 10 9 9 12 7 14 4 12 2 12v15l-3 16-5 13-6 11-8 10-7 7-13 9-12 6-14 4-5 1h-23l-14-3-11-4-8-4v-2l-5-2-14-12-9-12-7-15-4-13-1-6v-22l4-17 8-17 10-13 8-8 15-10 15-6z" fill="#1B284E"/>
<path transform="translate(1586,669)" d="m0 0 14 1 13 4 13 7 9 7 11 11 9 14 6 12 5 15 2 11v27l-3 14-8 16-8 10-8 7-16 8-9 2h-15l-15-4-16-8-13-11-10-12-8-14-5-11-4-15-1-6v-25l3-15 7-16 10-13 10-8 11-5 7-2z" fill="#1B284E"/>
<path transform="translate(1616,417)" d="m0 0 16 8 11 6-2 4-8 8-7 8-17 17-4 5-4 3v2l11-8 10-9 8-8 7-8 9-11 4 1 17 12 13 11 8 7 5 5-1 4-12 15-11 14-9 9v3l5-3 10-10 6-8 10-13 5-6 5 3 7 8 12 14 12 17 10 16 8 15 5 12v8l-11 24-8 17 4-4 8-14 9-20 3 3 6 17 7 27 5 27 3 30 1 27v13h-3l-9-14-10-13-18-20-14-13-11-7-3-5 2-4-1-18-4-26-5-19-5-12-6-8-6-4-5-1h-8l-8 1-4-5-8-13-10-14-17-17-14-11-16-10v-2l-7-1-14-6-1-3 10-8 7-7 3-5h2l2-5 7-11 4-7h2z" fill="#86615B"/>
<path transform="translate(275,668)" d="m0 0h5l14 35 12 25 11 18 12 17 3 4-2 4-4 1v2l-8 7-9 11-8 11-11 17-1 3h-2l-2 6-12 23-7 16-7 19-5 14-1 6h-2l-6-10-18-41-8-24-3-12-2-13-1-12v-33l2-35 3-27 1-3 16-10 11-6 7-4 15-7z" fill="#87625B"/>
<path transform="translate(319,673)" d="m0 0h2l9 11 14 14 16 12 12 7 16 8 11 3-4 2 16 17 11 9 14 9 19 9 20 6 16 2h11l14-3 15-6 10-6 6-5 9-12 7-15 3-13-1-16-4-15-3-10 8 3 10 8 5 7 4 15v20l-3 14-5 16-6 12-12 16-12 12-13 10-16 7-18 5-20 2-28-1-23-4-15-5-16-8-11-7-14-11-14-14-12-17-10-17-6-15-7-29-5-23z" fill="#654153"/>
<path transform="translate(1055,1681)" d="m0 0h5l8 5 18 6 13 2h38l-2 4-21 14-21 13-10 5-9 6-23 11-28 13-33 12-23 6-6 1h-18l-13-4-11-8-9-13-6-16-6-25-4-19v-7l17 1 22 2 5 1 43-1 31-2 27-4z" fill="#654153"/>
<path transform="translate(391,1577)" d="m0 0 8 4 14 9 24 14 27 14 31 15 33 14 29 9 20 6-2 4-16 6-40 13-29 8-22 5-26 5-9 1h-11l-10-2-10-5-5-8-4-13-3-20-2-27v-32l1-15z" fill="#654153"/>
<path transform="translate(299,882)" d="m0 0 2 4 15 14 11 9 13 11 8 6 14 7 28 13 27 10 8 3h4l4 22 6 20 9 20 6 11v3l-13-2-27-6-25-9-19-10-25-15-25-16-17-12-10-8-12-11-4-4 2-9 10-28z" fill="#654153"/>
<path transform="translate(717,855)" d="m0 0 16 8 14 8 6 4-1 5-10 16-9 13-12 16-12 14-10 11-8 7-15 12-28 22-14 10-9 5-7-10-14-25-4-6 3 10 8 16 6 11 4 6-8 5-6 3-5-1-18-22-13-20-6-10 1-2 2 1 28-9 19-7 17-9 10-7 12-8 10-8 10-9 15-15 7-8 12-15z" fill="#654153"/>
<path transform="translate(431,489)" d="m0 0 3 1-5 29 1 16-2-1v-11l-8 6-7 8-9 10-7 10-10 18-7 17-6 19-4 21-1 10v16l2 16 6 21 5 13 5 10h-3l-9-4-14-8-11-8-13-12-14-15-5-8-1-4v-19l3-19 6-21 9-20 9-15 14-19 9-10 8-8 13-10 18-13 20-13z" fill="#654153"/>
<path transform="translate(994,1274)" d="m0 0h8l12 4 16 8 16 9 12 8 16 12 10 8 14 12 16 15v2h2l7 8 7 7 9 11 8 9 12 17 7 11 8 16 5 15 2 14-1 19 1 2v6l-5 8-7 8-15 10-19 9-21 5-16 2h-43l-54-6-30-7-24-6-26-8-26-11-11-6-4-4 17 2 93 20 10 2h7v2l43 5 16 1h21l19-2 14-3 15-5 15-8 12-9 3-3v-18l-5-17-8-18-10-16-14-18-12-14-9-10-7-8-21-21-13-12-11-9-16-13-19-14-15-10-9-7z" fill="#1B284E"/>
<path transform="translate(434,962)" d="m0 0 38 7 12 1h31l23-2 22-3 1-2 6 12 11 17 11 14 10 11v2l-16 6-25 7-24 5-14 2h-37l-21-2-3-1-8-16-7-15-6-18-4-17z" fill="#654153"/>
<path transform="translate(1707,1435)" d="m0 0h5l7 11 10 14 8 15 7 21 2 10v9l-4 8-6 7-8 5-9 3h-23l-56-7-13-2 2-5 12-19 5-11 2-10v-16l-2-7 4-3 25-9 19-8z" fill="#86625B"/>
<path transform="translate(246,681)" d="m0 0 1 2v30l2 38 3 24 4 19 8 24 10 21 3 4-2 5-9 20-7 19-5 14-1 6h-2l-6-10-18-41-8-24-3-12-2-13-1-12v-33l2-35 3-27 1-3 16-10z" fill="#654153"/>
<path transform="translate(1032,1449)" d="m0 0 12 3 31 11 16 4 8 1h65l2-3v18l-10 9-13 8-13 6-13 4-19 3-11 1h-21l-26-2-29-4-4-1 1-7 16-36 7-14z" fill="#654153"/>
<path transform="translate(1493,381)" d="m0 0 22 1 26 4 19 5 19 7 35 17v4l-8 14-10 14-9 11-11 11-1 2-15-1-13-2-4-16-9-19-2-3 1-4 13-14-7 6-8 8-5-5-10-13-14-15-9-9z" fill="#85605B"/>
<path transform="translate(1055,1681)" d="m0 0h5l8 5 18 6 13 2h38l-2 4-21 14-21 13-4 2-7 1h-15l-28-3-24-5-29-9-46-18-2-2 43-1 31-2 27-4z" fill="#A7E0FE"/>
<path transform="translate(1648,1463)" d="m0 0 2 2 1 14 8 4 40 15 36 12 10 3-1-13h1l1 6v9l-4 8-6 7-8 5-9 3h-23l-56-7-13-2 2-5 12-19 5-11 2-10z" fill="#654153"/>
<path transform="translate(272,531)" d="m0 0h3v15l-4 52 1 27-1 3-20 11-12 8-10 8h-1l1-9 10-34 10-30 10-25 12-25z" fill="#654153"/>
<path transform="translate(744,798)" d="m0 0 4 1 17 5 12 5-1 11-4 15-6 16-9 20-5 1-18-11-9-5-4-3 3-10 10-19 12-23z" fill="#654153"/>
<path transform="translate(501,475)" d="m0 0h35l17 3 5 1-2 2-8 2-23 2-24 4-21 6-14 5-19 10-11 6-1 1-1 15h-1v-19l4-26 10-4 11-3 29-4z" fill="#654153"/>
<path transform="translate(278,850)" d="m0 0 3 4 8 15 7 9 2 2-8 16-7 16-6 17-2 8-4-1-7-9-8-11-2-3 1-8 12-32 9-20z" fill="#654153"/>
<path transform="translate(1616,417)" d="m0 0 16 8 11 6-2 4-8 8-7 8-17 17-4 5-4 3v2l2 1-3 1-1 2v-2l-7-1-14-6-1-3 10-8 7-7 3-5h2l2-5 7-11 4-7h2z" fill="#845F5B"/>
<path transform="translate(269,634)" d="m0 0h4l4 20 1 9-7 2-12 4-16 8-22 14h-1l1-11 4-17 5-5 13-8 15-10z" fill="#845F5B"/>
<path transform="translate(1469,959)" d="m0 0 3 2v8l-5 35-2 15-2 5h-2l-1 2-7-10-10-14-9-11-2-2v-3l13-5 10-8 10-9 1-2h2z" fill="#D3687F"/>
<path transform="translate(764,757)" d="m0 0 11 3 7 3v10l-3 29-1 2-8-1-12-5-8-3 6-17z" fill="#654153"/>
<path transform="translate(1464,357)" d="m0 0 9 2 5 2 34 1 33 4 19 5 15 6 25 12 41 21 21 12 15 10 14 11 12 11 19 19 11 14 10 13 14 22 11 22 7 18-1 3-11-26-10-19-7-11-7-10-13-17-5-6-5-5-7-8-14-14-14-11-16-11-17-10-25-13-22-12-23-11-19-8-25-5-1-1-20-2-39-1-14-6z" fill="#D0798D"/>
<path transform="translate(250,645)" d="m0 0 2 1-3 4-2 21 2 3-11 6-17 11h-1l1-11 4-17 5-5 13-8z" fill="#654153"/>
<path transform="translate(1092,792)" d="m0 0h7l10 5 4 6v10l-4 5-2 1h-11l-6-4-4-5-1-8 3-7z" fill="#DBF3FD"/>
<path transform="translate(1611,698)" d="m0 0 8 2 8 7 2 4v7l-5 4-11 3-7-4-3-5v-12l5-5z" fill="#DBF3FE"/>
<path transform="translate(1819,1316)" d="m0 0h1v8l-4 15-10 21-10 16-9 12-9 10-12 12-15 11-16 10 6 7 11 15 9 19 4 13 3 19v10l-2 14-2 3v-38l-4-14-2-8-8-16-7-9-3-5-5-5-3-6 8-6 8-4 8-6h2v-2l10-8h2v-2h2v-3l4-4h3l2-4 2-3h2l2-5 4-6 2-1 4-8h2l2-5 13-25z" fill="#D66F84"/>
<path transform="translate(207,870)" d="m0 0h2l7 16 3 9 4 9v2h2l2 7h2l4 8 5 7v2h2l5 7v2h2l3 5 5 5 1 3 3 1 3 5 5 5 9 8 10 8 4 3 1 5-5 4-4 4h-3v2l-8 5-3 3-3 5-5 4-8 16-2 15v7l1 10-2 1-1-8v-14l3-15 5-10 8-10 10-10 14-10-4-5-14-11-9-9-9-11-10-11-11-16-8-14-9-19-7-17z" fill="#CC7688"/>
<path transform="translate(1706,1273)" d="m0 0h7l7 6 2 5v9l-2 3-7 1-8-3-5-6 1-9z" fill="#FCD8D1"/>
<path transform="translate(778,709)" d="m0 0h1l3 24v26l-5-2-8-4-6-2 4-1 8-27z" fill="#654153"/>
<path transform="translate(267,601)" d="m0 0 2 1 1 8v18l-10 6h-6l1-6 11-25z" fill="#86615B"/>
<path transform="translate(242,1266)" d="m0 0 4 4 1 5h2l6 9 8 7 8 8 15 11 16 9 13 8 2 4-1 9h-1l-1-10-16-9-17-10-11-9-10-9-7-7-8-11z" fill="#AC6672"/>
<path transform="translate(273,517)" d="m0 0 8 1 5 5 2 5 1 10v64h-1l-1-17-1-4-1-51-5-10h-9l-6 3-2-1 6-4z" fill="#878492"/>
<path transform="translate(1819,1316)" d="m0 0h1v8l-4 15-10 21-10 16-9 12-9 10-9 9-2-1 3-4h2v-3l4-4h3l2-4 2-3h2l2-5 4-6 2-1 4-8h2l2-5 13-25z" fill="#DD7B8D"/>
<path transform="translate(1827,1116)" d="m0 0 1 3-8 18-10 16-10 13-6 9 1 9 13 32 4 13-1 4-2-3-2-10-10-25-6-16 1-6 1-3h2l1-4 5-5 10-14 12-22z" fill="#D77B8C"/>
<path transform="translate(1105,244)" d="m0 0h9l21 3 20 5 21 7 23 10 19 9 15 9-2 1-31-16-5-1v-2l-6-2-15-6-23-8-11-2-7-2-28-4z" fill="#B8AAC2"/>
<path transform="translate(1560,1560)" d="m0 0 2 1-13 10-27 18-23 15-25 15-6 3h-2l1-3 8-3 11-7 5-3 14-9 5-4 6-3 9-6h2l1-3 8-4 4-4 6-3 7-5h2v-2z" fill="#CC7F89"/>
<path transform="translate(350,511)" d="m0 0 2 1-12 12-5 8-5 5-3 6h-2l-2 5-5 9-7 12-6 11-8 19-4 10-2 2-1-5 2-1 7-18 8-16 10-18 12-19 12-14z" fill="#DF8090"/>
<path transform="translate(1611,1547)" d="m0 0h12l42 8 2 2-21-3-27-5-7 1-14 7-7 2h-11l-9-3-7 4h-2v-2l8-4 6 1 2 1h12l7-2h5l1-3z" fill="#816876"/>
<path transform="translate(927,889)" d="m0 0 4 1-12 5-12 6-16 12-11 13-8 13-7 16-3 17h-1v-8l3-12 6-15 10-15 9-10 7-7 14-9 12-5z" fill="#FDFDFD"/>
<path transform="translate(239,1172)" d="m0 0 6 2 14 14 1 5-9 12-6 12-2 11-2 6v22l1 5v5l-2-4-1-4v-26l4-16 7-14 7-9-1-4-16-15z" fill="#B78696"/>
<path transform="translate(316,1384)" d="m0 0 2 3 5 15v2h2l4 8 16 14 10 6 9 6 3 4-1 3-4-6-18-9-15-14-7-11-4-9-2-8z" fill="#A1656D"/>
<path transform="translate(896,1774)" d="m0 0 7 6 9 9 14 8 9 3 20 1 4 2h-23l-9-2-16-8-7-6-8-11z" fill="#837180"/>
<path transform="translate(261,523)" d="m0 0 2 1-8 11-9 15-8 16-9 19-10 26-1-3 8-22 9-20 10-19 10-17z" fill="#DA7689"/>
<path transform="translate(1446,1630)" d="m0 0h5l-2 2-24 10-30 10-10 2h-12v-1l22-4 18-6h5v-2l21-8z" fill="#986068"/>
<path transform="translate(811,308)" d="m0 0h1l1 18-1 1-22 3-35 8-4 1h-8l3-2 24-6 24-4 16-2v-10z" fill="#A16974"/>
<path transform="translate(1464,357)" d="m0 0 9 2 5 2 34 1 33 4 6 3-4 1-9-2-1-1-20-2-39-1-14-6z" fill="#9C6271"/>
<path transform="translate(632,393)" d="m0 0 2 1-4 5-7 4-8 7-13 12-12 13-7 9-4 7-1 1h-6l-1-2 5-2 3-1 2-4 9-11 14-15 16-15z" fill="#E28896"/>
<path transform="translate(1385,332)" d="m0 0 5 3 19 19 7 8 5 4 7 1h4v2l-7 1-8-4-13-12-19-19z" fill="#AB707B"/>
<path transform="translate(613,1670)" d="m0 0h6l-2 2-36 15-27 10h-3v-2l20-7 31-13z" fill="#905965"/>
<path transform="translate(1143,1711)" d="m0 0 3 1-12 10-14 10-17 11-19 11-2-1 10-6h2v-2l11-6 8-6 9-6h2v-2l9-6z" fill="#DF8492"/>
<path transform="translate(1268,273)" d="m0 0h18l14 3 16 6 14 8-2 1-6-2v-2l-6-1-4-2v-2l-11-2-11-3-7-2-15-1z" fill="#A97B8C"/>
<path transform="translate(1330,291)" d="m0 0 6 2 19 13 13 10 13 11 4 5-6-2v-2l-3-1-5-5-7-6-2-1v-2l-4-2-10-6-4-4-14-9z" fill="#CE6F81"/>
<path transform="translate(1760,1476)" d="m0 0 1 2h2l4 17 1 9v10l-2 14-2 3v-38l-4-14z" fill="#8E6975"/>
<path transform="translate(250,1065)" d="m0 0h2l1 11-10 7h-2l-1 3-4 2-5 7h-2l-2 4-4 2-3 3 2-5 10-11 13-10 5-3z" fill="#AD6B76"/>
<path transform="translate(1618,397)" d="m0 0 19 9 19 10 18 11v2l-5-2-17-10-25-13-9-5z" fill="#D66D83"/>
<path transform="translate(1059,1764)" d="m0 0 4 1-16 8-17 8-17 7h-3v-2l26-11 10-4z" fill="#975F67"/>
<path transform="translate(1745,501)" d="m0 0 4 2 12 19 11 22 7 18-1 3-11-26-10-19-7-11z" fill="#D77085"/>
<path transform="translate(1336,1643)" d="m0 0 7 1 5 3 9 5 16 2v1h-12l-9-2-11-7-6 1-14 7-2-1 1-2 10-4 4-1v-2z" fill="#B37986"/>
<path transform="translate(284,1310)" d="m0 0 5 2 18 10 9 6 1 3-1 9h-1l-1-10-16-9-10-6z" fill="#9D5E69"/>
<path transform="translate(871,1695)" d="m0 0 2 2 6 29 4 14v6l-2-3-7-26-3-17z" fill="#925E6B"/>
<path transform="translate(1180,262)" d="m0 0 6 1 20 9 19 10 8 5-2 1-31-16-5-1v-2l-6-2-9-4z" fill="#D67487"/>
<path transform="translate(1851,965)" d="m0 0h2l-1 6-7 10-9 8-8 5v5l-2-1-1-5 11-8 8-7 4-5z" fill="#CC7484"/>
<path transform="translate(1610,1549)" d="m0 0 2 1-14 7-7 2h-11l-9-3-7 4h-2v-2l8-4 6 1 2 1h12l14-4z" fill="#C07783"/>
<path transform="translate(1264,274)" d="m0 0 4 1-5 3-10 9-5 5h-2l-1 3-6-2-6-3v-2l12 4 2-4 3-3h2l1-3h2l1-3z" fill="#A47783"/>
<path transform="translate(382,1707)" d="m0 0h2l7 8 6 4 14 4 6 1 21 1v1h-23l-14-3-10-5-8-8z" fill="#AA6F80"/>
<path transform="translate(1791,604)" d="m0 0 2 3 5 26 2 14v6l-2-1-3-21-4-18z" fill="#915F6C"/>
<path transform="translate(316,1384)" d="m0 0 2 3 5 15v2h2l4 8 8 7 2 3-6-2-7-8-8-16-2-8z" fill="#936974"/>
<path transform="translate(1791,1377)" d="m0 0 2 1-2 5-9 11-13 13-2-1 3-4h2v-3l4-4h3l2-4 2-3h2l2-5z" fill="#C46F7E"/>
<path transform="translate(1426,384)" d="m0 0 9 1 1 12h-4l-6-10z" fill="#855F5B"/>
<path transform="translate(350,511)" d="m0 0 2 1-12 12-5 8-5 5-3 6h-2l-2 5-2 3v-4l9-14 11-13z" fill="#D97889"/>
<path transform="translate(489,447)" d="m0 0h6l-4 2-9 1-2 1-28 3h-6v-1l22-4z" fill="#8B8493"/>
<path transform="translate(366,1647)" d="m0 0 2 3 3 19 3 14v7l-2-3-4-16-2-15z" fill="#8F6A75"/>
<path transform="translate(1763,1531)" d="m0 0 1 3-6 9-9 9-7 4-5 1v-2l9-4 9-10 5-5z" fill="#A1616D"/>
<path transform="translate(1410,1644)" d="m0 0 3 1-5 3-13 4-10 2h-12v-1l22-4z" fill="#926771"/>
<path transform="translate(284,989)" d="m0 0h2l-1 4-3 2h-3v2l-8 5-3 3-3 5-4 3 1-5 12-12z" fill="#AC6571"/>
<path transform="translate(737,1663)" d="m0 0 5 1 4 3v2l4 2 11 6 13 3v2l3 1-8-1-13-5-11-7-8-6z" fill="#D57385"/>
<path transform="translate(621,403)" d="m0 0 2 1-28 28-2-1 11-12z" fill="#574153"/>
<path transform="translate(811,308)" d="m0 0h1l1 18-1 1-22 3-15 1v-1l35-5v-10z" fill="#B37380"/>
<path transform="translate(1827,1116)" d="m0 0 1 3-8 18-10 16-2 1 1-4 7-11 3-7z" fill="#DB8491"/>
<path transform="translate(367,1445)" d="m0 0 4 2 3 5 1 4 5 5 4 5-1 4-8-10-8-13z" fill="#AC6472"/>
<path transform="translate(1707,1309)" d="m0 0 5 3-2 5-1 1h-5l-2-2 1-5z" fill="#FCD9D2"/>
<path transform="translate(829,288)" d="m0 0 2 1-7 8-7 7-5 4 2-5 7-8z" fill="#A66F7E"/>
<path transform="translate(239,1172)" d="m0 0 6 2 14 14 1 3-4-2-16-15z" fill="#A3626B"/>
<path transform="translate(1497,1602)" d="m0 0v3l-16 10-13 7h-2l1-3 8-3 11-7 5-3z" fill="#D27B8A"/>
<path transform="translate(217,1108)" d="m0 0h1l-1 10v18l4 9 1 6-3-3-4-11v-23z" fill="#A893A0"/>
<path transform="translate(1716,639)" d="m0 0 1 3v3l5 2 12 11 2 3-4-2-7-6-9-6-2-5z" fill="#654153"/>
<path transform="translate(442,454)" d="m0 0 4 1-18 7-6 1v2l-10 3 3-3 17-8z" fill="#A8737F"/>
<path transform="translate(896,1774)" d="m0 0 5 5 9 10 11 7 4 3-5-1-10-6-6-5-8-11z" fill="#D87387"/>
<path transform="translate(668,1641)" d="m0 0 2 1-21 13-9 5-2-1 19-12h2v-2z" fill="#D57989"/>
<path transform="translate(1524,1585)" d="m0 0 3 1-16 10-12 8v-3l11-8 6-3z" fill="#DB8390"/>
<path transform="translate(693,357)" d="m0 0h2v2l-16 8-9 4-3-1 21-11z" fill="#9F717B"/>
<path transform="translate(1768,1404)" d="m0 0m-1 1m-1 1 2 2-15 12-9 5 1-3 11-8h2v-2z" fill="#D47887"/>
<path transform="translate(1082,1727)" d="m0 0h5l-5 4-3 2h-6l-3-5z" fill="#8C5E5F"/>
<path transform="translate(273,517)" d="m0 0 8 1 5 5 2 5v6h-1l-3-10-6-4h-7l-6 3-2-1 6-4z" fill="#D67388"/>
<path transform="translate(632,393)" d="m0 0 2 1-4 5-7 4-8 7-4 3 2-4 7-7z" fill="#AE6773"/>
<path transform="translate(1674,428)" d="m0 0 7 4 14 11 6 5-2 1-14-11-11-8z" fill="#DD7A8C"/>
<path transform="translate(1016,269)" d="m0 0h2l-1 4-6 5-2 5-5 1-5-1v-1l7-1z" fill="#B98C9A"/>
<path transform="translate(1032,1777)" d="m0 0h2v2l-21 9h-3v-2z" fill="#8A5461"/>
<path transform="translate(1366,316)" d="m0 0 5 2 14 13h-3l-3-1v-2l-3-1-5-5z" fill="#C66C7C"/>
<path transform="translate(1804,1359)" d="m0 0 1 2-8 14-4 4v-3l4-8h2l2-5z" fill="#CD7081"/>
<path transform="translate(242,1266)" d="m0 0 4 4 1 5h2l6 9-1 3-8-10-4-9z" fill="#AB6B76"/>
<path transform="translate(1183,1694)" d="m0 0h9v1l-25 4-6 1v-2l7-2z" fill="#956370"/>
<path transform="translate(1295,1663)" d="m0 0h5l-3 2-20 8-3-1 11-5z" fill="#985F69"/>
<path transform="translate(1143,1711)" d="m0 0 3 1-12 10-5 4-2-1 5-5z" fill="#DE9098"/>
<path transform="translate(250,1065)" d="m0 0h2l1 11-9 6-3-1 9-6z" fill="#B78392"/>
<path transform="translate(207,870)" d="m0 0h2l7 16-1 2-3-3-5-12z" fill="#A96B75"/>
<path transform="translate(200,847)" d="m0 0 3 2 4 18-1 3-6-20z" fill="#AE6773"/>
<path transform="translate(244,551)" d="m0 0v3l-9 19-3 1 2-6 8-16z" fill="#DA7B8D"/>
<path transform="translate(1802,739)" d="m0 0 2 3 6 16-1 3v-2h-2l-5-14z" fill="#9A6571"/>
<path transform="translate(1126,1724)" d="m0 0 2 1-5 5-9 6-4-1 12-8h2v-2z" fill="#C97B86"/>
<path transform="translate(613,1670)" d="m0 0h6l-2 2-14 6-2-1 3-3z" fill="#A16570"/>
<path transform="translate(1316,1653)" d="m0 0 3 1-4 3-13 6-2-1 1-2z" fill="#9B626D"/>
<path transform="translate(1560,1560)" d="m0 0 2 1-13 10-7 4 1-3 10-7h2v-2z" fill="#DD8792"/>
<path transform="translate(1763,1531)" d="m0 0 1 3-6 9-9 9v-3l7-7z" fill="#D97286"/>
<path transform="translate(1743,1422)" d="m0 0 2 1-5 5-5 4 1 4-3-3-1-3 8-6z" fill="#AD6E79"/>
<path transform="translate(1807,1153)" d="m0 0 1 2-8 11-4 5-3 1v-2h2l1-4 5-5z" fill="#CD7584"/>
<path transform="translate(439,879)" d="m0 0h2l-2 13-1 5h-1l-1-10z" fill="#5D3E52"/>
<path transform="translate(655,824)" d="m0 0 7 1 8 3-1 3-7-2-7-4z" fill="#634052"/>
<path transform="translate(1781,1392)" d="m0 0v3l-12 12-2-1 3-4h2v-3l4-4z" fill="#C26577"/>
<path transform="translate(1836,918)" d="m0 0 7 6 6 7 2 3-1 3-7-10-7-6z" fill="#C56F7F"/>
<path transform="translate(1426,384)" d="m0 0 9 1 1 12h-4l-2-5 3 3 1-9-8 1z" fill="#664253"/>
<path transform="translate(1521,1140)" d="m0 0 2 1 5 14-1 3-3-4-3-10z" fill="#985867"/>
<path transform="translate(470,631)" d="m0 0 3 2 2-1 5 8-1 3-5-5-4-5z" fill="#654153"/>
<path transform="translate(1233,288)" d="m0 0 12 4 2-4 2 1-1 3h-2l-1 3-6-2-6-3z" fill="#BA7A8C"/>
<path transform="translate(306,1324)" d="m0 0 6 1 5 4-1 11h-1l-1-10-8-5z" fill="#A98F9B"/>
<path transform="translate(255,1285)" d="m0 0 4 2 7 7-2 1-5-3-4-4z" fill="#9F616B"/>
<path transform="translate(222,1151)" d="m0 0 3 1 3 6 8 9-1 2-7-7-6-9z" fill="#CA6F81"/>
<path transform="translate(1810,895)" d="m0 0 7 6 9 7h-3l-10-7-3-2z" fill="#D37B8E"/>
<path transform="translate(297,594)" d="m0 0 1 2-4 11-3 4-1-5 2-1 4-10z" fill="#BEA5BA"/>
<path transform="translate(374,1690)" d="m0 0h2l1 7h2l3 6-1 4-7-14z" fill="#B8737E"/>
<path transform="translate(1555,401)" d="m0 0 2 1-9 10-3-2z" fill="#654153"/>
<path transform="translate(1819,1316)" d="m0 0h1v8l-2 9h-2l-1 2 2-11z" fill="#9D7078"/>
<path transform="translate(1834,986)" d="m0 0 2 1-5 5-3 2v5l-2-1-1-5z" fill="#A292A4"/>
<path transform="translate(1312,283)" d="m0 0 9 2 9 5-2 1-6-2v-2l-6-1z" fill="#A9616F"/>
<path transform="translate(689,1649)" d="m0 0h5l9 3v2l5 1-3 1-16-6z" fill="#BA6E7D"/>
<path transform="translate(1760,1476)" d="m0 0 1 2h2l2 7v8l-2-4-3-10z" fill="#935D67"/>
<path transform="translate(1828,999)" d="m0 0 2 3 4 13-1 2-4-8z" fill="#9A8797"/>
<path transform="translate(1410,1644)" d="m0 0 3 1-5 3-3 1h-7l3-2z" fill="#85525E"/>
<path transform="translate(1745,501)" d="m0 0 4 2 7 11-1 2-8-11z" fill="#D1687E"/>
<path transform="translate(581,445)" d="m0 0v3l-3 4h-6l-1-2 5-2z" fill="#87606E"/>
<path transform="translate(740,339)" d="m0 0 4 1-3 2-7 2h-6l3-2z" fill="#AD717A"/>
<path transform="translate(879,1729)" d="m0 0 2 4 2 7v6l-2-3-2-6z" fill="#A16973"/>
<path transform="translate(811,308)" d="m0 0h1l1 18-3 1v-12z" fill="#C4A8B6"/>
<path transform="translate(763,1678)" d="m0 0 11 2v2l3 1-8-1-6-2z" fill="#92727E"/>
<path transform="translate(1446,1630)" d="m0 0h5l-2 2-9 4-3-1 4-3z" fill="#A66B74"/>
<path transform="translate(1756,1414)" d="m0 0 1 3-12 8v-3z" fill="#DC7A8C"/>
<path transform="translate(781,330)" d="m0 0h6v1l-15 3-3-1 1-2z" fill="#885961"/>
<path transform="translate(211,631)" d="m0 0h1v8l-2 6h-2l2-11z" fill="#A0788B"/>
</svg>
